<?xml version="1.0" encoding="UTF-8" standalone="no"?>
<svg
   width="210mm"
   height="210mm"
   viewBox="0 0 210 297"
   version="1.1"
   id="svg21"
   sodipodi:docname="Pi_v2.svg"
   inkscape:version="1.2 (dc2aedaf03, 2022-05-15)"
   xmlns:inkscape="http://www.inkscape.org/namespaces/inkscape"
   xmlns:sodipodi="http://sodipodi.sourceforge.net/DTD/sodipodi-0.dtd"
   xmlns="http://www.w3.org/2000/svg"
   xmlns:svg="http://www.w3.org/2000/svg">
  <sodipodi:namedview
     id="namedview23"
     pagecolor="#ffffff"
     bordercolor="#000000"
     borderopacity="0.25"
     inkscape:showpageshadow="2"
     inkscape:pageopacity="0.0"
     inkscape:pagecheckerboard="0"
     inkscape:deskcolor="#d1d1d1"
     inkscape:document-units="mm"
     showgrid="false"
     inkscape:zoom="1"
     inkscape:cx="321"
     inkscape:cy="460"
     inkscape:window-width="1680"
     inkscape:window-height="1033"
     inkscape:window-x="91"
     inkscape:window-y="48"
     inkscape:window-maximized="0"
     inkscape:current-layer="svg21" />
  <defs
     id="defs3">
    <path
       id="a"
       d="M433.159 423.512H641.24v130.453H433.159z" />
  </defs>
  <g
     style="display:inline"
     id="g15">
    <g
       aria-label="X"
       style="font-size:36px;font-family:&quot;Cambria Math&quot;;-inkscape-font-specification:&quot;Cambria Math&quot;;display:inline;stroke-width:.264583"
       id="g9">
      <path
         d="M79.688 140.782c-1.676.168-4.45 1.811-6.292 3.873-1.638 1.834-2.453 4.072-2.453 4.776 0 1.27.627 2.857 1.88 4.761 1.255 1.905 3.036 4.172 5.346 6.802l9.708 11.178 4.646 5.35 14.156-15.712c2.112-2.358 3.696-4.24 4.752-5.645 1.056-1.406 1.782-2.585 2.178-3.537a6.631 6.631 0 0 0 .693-2.925c0-1.405-.594-2.584-1.782-3.536-1.188-.998-3.168-1.678-5.94-2.041v-3.333h36.726v3.333c-2.441.544-4.652 1.338-6.632 2.38-1.914 1.044-3.993 2.563-6.237 4.558-2.178 1.995-5.312 5.146-9.404 9.454l-22.372 23.806s45.99 48.102 47.318 49.37l-44.089-.023c1.745-.209 5.572-1.958 7.716-4.186 1.585-1.648 1.825-3.812 1.825-4.487 0-1.27-.495-2.675-1.485-4.217-.924-1.542-2.376-3.446-4.356-5.714l-17.917-20.54-18.908 21.289c-3.168 3.582-4.752 6.53-4.752 8.842 0 1.496.594 2.72 1.782 3.673 1.188.952 3.168 1.61 5.94 1.972v3.333h-37.42v-3.333c2.442-.499 4.455-1.088 6.04-1.768a24.808 24.808 0 0 0 4.553-2.721c1.452-1.088 3.069-2.471 4.85-4.149 1.782-1.678 4.62-4.602 8.514-8.774l23.362-25.03s-42.829-45.913-43.953-47.103z"
         style="display:inline;stroke-width:1.23509"
         transform="translate(-27.886 -44.536) scale(1.24945)"
         id="path5" />
      <path
         d="M65.818 214.588c-.86 2.983-4.244 14.426-4.72 16.039 2.952.005 7.421.02 10.635.027l.002 2.982h-37.42v-3.333c2.442-.499 4.455-1.088 6.04-1.768a24.808 24.808 0 0 0 4.553-2.721c1.452-1.088 3.069-2.471 4.85-4.149 1.782-1.678 4.62-4.602 8.514-8.774l9.58-10.263s-.608 5.1-2.034 11.96zm22.062-42.412 4.643 5.346 14.156-15.712c2.112-2.358 3.696-4.24 4.752-5.645 1.056-1.406 1.782-2.585 2.178-3.537a6.631 6.631 0 0 0 .693-2.925c0-1.405-.594-2.584-1.782-3.536-1.188-.998-3.168-1.678-5.94-2.041v-3.333h24.12s.008 8.33.003 10.037l-.265.234c-2.178 1.995-5.313 5.146-9.404 9.454L98.66 184.324s45.991 48.102 47.319 49.37l-44.09-.023c1.746-.209 5.573-1.958 7.716-4.186 1.585-1.648 1.825-3.812 1.825-4.487 0-1.27-.495-2.675-1.485-4.217-.923-1.542-2.375-3.446-4.355-5.714l-17.8-20.405-.118-.136Z"
         style="display:inline;stroke-width:1.23509"
         transform="translate(-27.886 -44.536) scale(1.24945)"
         id="path7" />
    </g>
    <g
       style="font-size:136.063px;line-height:0;font-family:cam;-inkscape-font-specification:cam;white-space:pre;shape-inside:url(#a);display:inline;stroke-width:.264583"
       transform="translate(-27.886 -44.536) scale(.33058)"
       id="g13">
      <path
         id="path1234"
         style="font-family:'Cambria Math';-inkscape-font-specification:'Cambria Math';display:inline;stroke-width:7.89452"
         d="m 268.98566,361.98851 c -66.56194,0 -100.04377,16.92362 -110.42376,22.93061 -10.37899,6.008 -34.9322,20.24654 -64.653173,61.8565 l -0.112752,23.34403 c 38.932965,-32.12897 68.699055,-33.83728 77.991045,-34.38928 33.15597,-1.97 35.32795,-1.81254 61.57793,-2.88954 v -0.002 c 12.73698,-0.023 17.61448,-0.0442 26.70447,-0.0442 v 72.37999 c 0,139.51386 7.55395,220.80818 -11.41003,306.1851 l -17.7595,60.30228 100.39105,0.22329 1.68022,-439.09066 H 493.9895 V 739.0969 c 0,47.90295 7.34361,81.9947 22.02859,102.27468 15.03599,20.27998 37.58992,30.42086 67.65989,30.42086 37.06297,0 88.32147,-32.19604 127.48243,-65.76301 -6.79199,-8.91199 -12.69078,-16.62847 -20.22678,-25.80246 -20.97898,17.48298 -61.08128,35.44605 -76.11627,35.44605 -26.22497,0 -30.61541,-22.3779 -30.61541,-68.18385 V 505.80668 c -3.85232,-1.76939 -7.22482,-4.00965 -10.11229,-6.72089 -8.31196,-7.86814 -12.4668,-19.44866 -12.4668,-34.7408 0,-9.45448 2.09642,-17.7995 6.29199,-25.0331 4.27472,-7.23364 10.3315,-12.81729 18.1685,-16.75137 7.83703,-3.93408 16.86183,-5.90067 27.07369,-5.90067 7.99533,0 14.80306,1.01601 20.42354,3.0465 5.62048,2.0305 10.09266,4.82122 13.41746,8.37458 1.37908,1.41391 2.62591,2.98711 3.74512,4.71347 h 60.38409 v -70.80589 z m 381.7575,70.80589 h -20.72642 c 0.97392,1.45436 1.80736,3.08548 2.49601,4.89917 1.66239,4.3148 2.73073,9.89848 3.20569,16.75137 h -51.51649 v 7.90147 h 73.83913 c -0.23749,-8.62959 -1.3058,-15.61083 -3.20569,-20.94087 -1.08307,-3.20837 -2.44892,-6.07637 -4.09223,-8.61114 z m -66.54121,29.55201 h -0.96834 v 1.71338 c 0,4.19134 0.32339,8.01408 0.96834,11.46973 z m 0,13.18311 v 30.27716 c 7.23713,3.32406 16.17484,4.9854 26.81723,4.9854 6.09544,0 11.67616,-0.66608 16.74252,-1.99858 5.06635,-1.39597 9.69722,-3.29935 13.89279,-5.71055 4.27474,-2.41121 8.94582,-5.74376 14.01217,-9.99511 l -7.24265,-6.18587 c -5.14551,4.37824 -10.33064,7.55053 -15.55531,9.51758 -5.14552,1.90358 -10.96536,2.85637 -17.45663,2.85637 -7.67868,0 -13.93214,-1.42918 -18.761,-4.28456 -4.74971,-2.91883 -8.19379,-6.91526 -10.33116,-11.99148 -0.90605,-2.26258 -1.61077,-4.75282 -2.11796,-7.47036 z m 0,-21.08458 v -3.20126 c -0.1491,1.04027 -0.27516,2.10338 -0.37363,3.20126 z m 0,-3.20126 c 1.11046,-7.74807 3.62697,-13.8974 7.54552,-18.44928 h -7.54552 z m 7.54552,-18.44928 h 38.26927 c -1.37713,-2.05647 -3.03791,-3.7557 -4.9854,-5.09373 -3.3248,-2.34775 -7.67851,-3.52183 -13.06151,-3.52183 -8.15366,0 -14.68424,2.63267 -19.59228,7.89925 -0.21546,0.23217 -0.42249,0.47517 -0.63008,0.71631 z" />
    </g>
  </g>
  <g
     style="display:inline;fill:#f9f9f9;fill-opacity:1"
     id="g19">
    <path
       d="m 79.718,140.831 c -0.753,0.076 -1.728,0.449 -2.74,1.024 -1.24,0.705 -2.537,1.714 -3.552,2.85 -1.639,1.833 -2.454,4.071 -2.454,4.776 0,1.27 0.61,2.816 1.864,4.72 1.253,1.905 3.035,4.172 5.345,6.802 l 9.695,11.165 -0.085,22.51 -0.09,-0.102 -18.907,21.29 c -3.167,3.581 -4.751,6.529 -4.751,8.841 0,1.497 0.594,2.72 1.782,3.673 1.187,0.952 3.167,1.61 5.94,1.973 l -0.013,0.298 c 0,0 -4.954,-0.016 -10.662,-0.025 a 6570.01,6570.01 0 0 0 4.698,-15.945 c 0.896,-3.73 1.89,-10.48 2.06,-11.97 l 13.815,-14.8 c 0,0 -6.738,-7.232 -12.462,-13.36 -0.04,-7.334 -0.34,-27.1 -0.334,-33.742 3.842,0.04 10.85,0.022 10.85,0.022 z m 50.983,0.012 h 12.58 v 3.333 c -2.442,0.544 -4.653,1.337 -6.633,2.38 -1.83,0.998 -4.048,2.57 -5.945,4.3 0.007,-2.472 -0.002,-10.013 -0.002,-10.013 z"
       style="font-size:36px;font-family:'Cambria Math';-inkscape-font-specification:'Cambria Math';display:inline;fill:#f9f9f9;fill-opacity:1;stroke-width:1.23509"
       transform="matrix(1.24945,0,0,1.24945,-27.886,-44.536)"
       id="path17" />
  </g>
  <path
     style="fill:#f9f9f9;fill-opacity:1;stroke-width:0.125"
     d="m 557.375,327.52074 c -0.17188,-0.0713 -0.93125,-0.46548 -1.6875,-0.87603 -9.44208,-5.12597 -15.21362,-13.93391 -17.04982,-26.01971 -0.49455,-3.25506 -0.57518,-4.5343 -0.57518,-9.125 0,-4.71359 0.0639,-5.61471 0.63234,-8.92221 0.9699,-5.64311 2.96272,-10.71881 5.99344,-15.26529 1.50381,-2.25591 2.48988,-3.44604 4.61534,-5.57045 2.55777,-2.5565 4.41207,-4.00902 7.44638,-5.83292 6.32837,-3.80393 13.67277,-5.99984 22.09616,-6.60653 2.63863,-0.19005 9.46782,-0.0834 11.84134,0.18495 8.06938,0.91226 14.37825,3.16307 19.4375,6.93471 1.85912,1.38596 4.57016,4.21877 5.87186,6.13562 l 0.51245,0.75462 h -9.04997 -9.04997 l -0.63004,-0.84375 c -0.59932,-0.8026 -2.16039,-2.41414 -2.96683,-3.06275 -3.12223,-2.51115 -7.16934,-3.7185 -12.46459,-3.7185 -4.2326,0 -7.79717,0.74694 -11.03541,2.31243 -2.30358,1.11363 -4.36325,2.6033 -6.03998,4.36847 l -0.89681,0.9441 H 561.06286 557.75 v 8.1423 c 0,5.46254 -0.0495,8.61721 -0.15042,9.58528 -0.11721,1.12452 -0.11721,1.45404 0,1.49311 0.11235,0.0375 0.15042,0.9176 0.15042,3.47723 v 3.42708 h -0.45592 -0.45592 l 0.0881,2.71875 c 0.094,2.90131 0.33675,5.84783 0.64105,7.78125 0.15888,1.00948 0.1819,3.17568 0.15355,14.45015 l -0.0334,13.26265 z"
     id="path1490"
     transform="matrix(0.37419642,0,0,0.37419642,-43.5,0)" />
</svg>
