<svg width="210mm" height="210mm" viewBox="0 0 210 297" xmlns="http://www.w3.org/2000/svg"><defs><path id="a" d="M433.159 423.512H641.24v130.453H433.159z"/></defs><g style="display:inline"><g aria-label="X" style="font-size:36px;font-family:&quot;Cambria Math&quot;;-inkscape-font-specification:&quot;Cambria Math&quot;;display:inline;stroke-width:.264583"><path d="M79.688 140.782c-1.676.168-4.45 1.811-6.292 3.873-1.638 1.834-2.453 4.072-2.453 4.776 0 1.27.627 2.857 1.88 4.761 1.255 1.905 3.036 4.172 5.346 6.802l9.708 11.178 4.646 5.35 14.156-15.712c2.112-2.358 3.696-4.24 4.752-5.645 1.056-1.406 1.782-2.585 2.178-3.537a6.631 6.631 0 0 0 .693-2.925c0-1.405-.594-2.584-1.782-3.536-1.188-.998-3.168-1.678-5.94-2.041v-3.333h36.726v3.333c-2.441.544-4.652 1.338-6.632 2.38-1.914 1.044-3.993 2.563-6.237 4.558-2.178 1.995-5.312 5.146-9.404 9.454l-22.372 23.806s45.99 48.102 47.318 49.37l-44.089-.023c1.745-.209 5.572-1.958 7.716-4.186 1.585-1.648 1.825-3.812 1.825-4.487 0-1.27-.495-2.675-1.485-4.217-.924-1.542-2.376-3.446-4.356-5.714l-17.917-20.54-18.908 21.289c-3.168 3.582-4.752 6.53-4.752 8.842 0 1.496.594 2.72 1.782 3.673 1.188.952 3.168 1.61 5.94 1.972v3.333h-37.42v-3.333c2.442-.499 4.455-1.088 6.04-1.768a24.808 24.808 0 0 0 4.553-2.721c1.452-1.088 3.069-2.471 4.85-4.149 1.782-1.678 4.62-4.602 8.514-8.774l23.362-25.03s-42.829-45.913-43.953-47.103z" style="display:inline;stroke-width:1.23509" transform="translate(-27.886 -44.536) scale(1.24945)"/><path d="M65.818 214.588c-.86 2.983-4.244 14.426-4.72 16.039 2.952.005 7.421.02 10.635.027l.002 2.982h-37.42v-3.333c2.442-.499 4.455-1.088 6.04-1.768a24.808 24.808 0 0 0 4.553-2.721c1.452-1.088 3.069-2.471 4.85-4.149 1.782-1.678 4.62-4.602 8.514-8.774l9.58-10.263s-.608 5.1-2.034 11.96zm22.062-42.412 4.643 5.346 14.156-15.712c2.112-2.358 3.696-4.24 4.752-5.645 1.056-1.406 1.782-2.585 2.178-3.537a6.631 6.631 0 0 0 .693-2.925c0-1.405-.594-2.584-1.782-3.536-1.188-.998-3.168-1.678-5.94-2.041v-3.333h24.12s.008 8.33.003 10.037l-.265.234c-2.178 1.995-5.313 5.146-9.404 9.454L98.66 184.324s45.991 48.102 47.319 49.37l-44.09-.023c1.746-.209 5.573-1.958 7.716-4.186 1.585-1.648 1.825-3.812 1.825-4.487 0-1.27-.495-2.675-1.485-4.217-.923-1.542-2.375-3.446-4.355-5.714l-17.8-20.405-.118-.136Z" style="display:inline;stroke-width:1.23509" transform="translate(-27.886 -44.536) scale(1.24945)"/></g><g style="font-size:136.063px;line-height:0;font-family:cam;-inkscape-font-specification:cam;white-space:pre;shape-inside:url(#a);display:inline;stroke-width:.264583" transform="translate(-27.886 -44.536) scale(.33058)"><path d="M233.364 432.84c-26.25 1.077-28.42.92-61.576 2.89-9.292.552-39.06 2.261-77.993 34.39l.114-23.345c29.721-41.61 54.273-55.848 64.652-61.856 10.38-6.007 43.862-22.93 110.424-22.93h442.143v70.806H584.202v314.693c0 45.806 4.39 68.185 30.615 68.185 15.035 0 55.137-17.964 76.116-35.447 7.536 9.174 13.436 16.892 20.228 25.804-39.161 33.567-90.42 65.762-127.483 65.762-30.07 0-52.624-10.14-67.66-30.42-14.685-20.28-22.028-54.372-22.028-102.275V432.795H332.972l-1.68 439.09-100.393-.223 17.76-60.303c18.964-85.377 11.41-166.67 11.41-306.184v-72.38c-9.09 0-13.968.021-26.705.044z" style="font-family:&quot;Cambria Math&quot;;-inkscape-font-specification:&quot;Cambria Math&quot;;display:inline;stroke-width:7.89452" aria-label="π"/></g></g><g style="display:inline"><path d="M79.718 140.831c-.753.076-1.728.449-2.74 1.024-1.24.705-2.537 1.714-3.552 2.85-1.639 1.833-2.454 4.071-2.454 4.776 0 1.27.61 2.816 1.864 4.72 1.253 1.905 3.035 4.172 5.345 6.802l9.695 11.165-.085 22.51-.09-.102-18.907 21.29c-3.167 3.581-4.751 6.529-4.751 8.841 0 1.497.594 2.72 1.782 3.673 1.187.952 3.167 1.61 5.94 1.973l-.013.298s-4.954-.016-10.662-.025a6570.01 6570.01 0 0 0 4.698-15.945c.896-3.73 1.89-10.48 2.06-11.97l13.815-14.8s-6.738-7.232-12.462-13.36c-.04-7.334-.34-27.1-.334-33.742 3.842.04 10.85.022 10.85.022zm50.983.012h12.58v3.333c-2.442.544-4.653 1.337-6.633 2.38-1.83.998-4.048 2.57-5.945 4.3.007-2.472-.002-10.013-.002-10.013z" style="font-size:36px;font-family:&quot;Cambria Math&quot;;-inkscape-font-specification:&quot;Cambria Math&quot;;display:inline;fill:#f9f9f9;stroke-width:1.23509" transform="translate(-27.886 -44.536) scale(1.24945)"/></g></svg>